# xmcd
#
# Track frame offsets:
#	150
#	18100
#	40229
#	55931
#	72244
#	94056
#	106245
#	129080
#	148452
#	172825
#	195568
#
# Disc length: 2767 seconds
#
# Revision: 1
# Processed by: cddbd v1.4b41PL3 Copyright (c) Steve Scherf et al.
# Submitted via: audiograbber 1.80
#
DISCID=8e0acd0b
DTITLE=Ivar - Ivar
DYEAR=1900
DGENRE=
TTITLE0=Sign
TTITLE1=Mine
TTITLE2=Lost in your eyes
TTITLE3=Non stop
TTITLE4=Magic
TTITLE5=Day by day
TTITLE6=Wonder
TTITLE7=I'm in too deep
TTITLE8=Lesson
TTITLE9=Winter blues
TTITLE10=Like I do
EXTD=
EXTT0=
EXTT1=
EXTT2=
EXTT3=
EXTT4=
EXTT5=
EXTT6=
EXTT7=
EXTT8=
EXTT9=
EXTT10=
PLAYORDER=
